<svg width="120" height="120" viewBox="0 0 120 120" fill="none" xmlns="http://www.w3.org/2000/svg">
  <!-- Outer circle -->
  <circle cx="60" cy="60" r="58" stroke="#335599" stroke-width="4" fill="white"/>
  
  <!-- Inner circle -->
  <circle cx="60" cy="60" r="25" fill="#1F2937"/>
  
  <!-- Car path orbit -->
  <path d="M60 20C82.0914 20 100 37.9086 100 60C100 82.0914 82.0914 100 60 100C37.9086 100 20 82.0914 20 60C20 37.9086 37.9086 20 60 20Z" stroke="#FF6B35" stroke-width="4" stroke-dasharray="12 6" fill="none"/>
  
  <!-- Car symbol -->
  <path fill-rule="evenodd" clip-rule="evenodd" d="M86 67C86 64.7909 84.2091 63 82 63H79.1075C78.819 61.8868 78.372 60.8311 77.7889 59.8556L79.7854 57.8591C81.364 56.2805 81.364 53.7195 79.7854 52.1409C78.2068 50.5623 75.6458 50.5623 74.0672 52.1409L72.1444 54.0637C71.1689 53.4805 70.1132 53.0335 69 52.745V50C69 47.7909 67.2091 46 65 46H60C57.7909 46 56 47.7909 56 50V52.745C54.8868 53.0335 53.8311 53.4805 52.8556 54.0637L50.8591 52.0672C49.2805 50.4886 46.7195 50.4886 45.1409 52.0672C43.5623 53.6458 43.5623 56.2068 45.1409 57.7854L47.1374 59.782C46.5543 60.7574 46.1073 61.8132 45.8188 62.9264H43C40.7909 62.9264 39 64.7173 39 66.9264V72C39 74.2091 40.7909 76 43 76H45.8188C46.1073 77.1132 46.5543 78.1689 47.1374 79.1444L45.1409 81.1409C43.5623 82.7195 43.5623 85.2806 45.1409 86.8591C46.7195 88.4377 49.2805 88.4377 50.8591 86.8591L52.8556 84.8626C53.8311 85.4457 54.8868 85.8927 56 86.1812V89C56 91.2091 57.7909 93 60 93H65C67.2091 93 69 91.2091 69 89V86.1812C70.1132 85.8927 71.1689 85.4457 72.1444 84.8626L74.1409 86.8591C75.7195 88.4377 78.2806 88.4377 79.8591 86.8591C81.4377 85.2806 81.4377 82.7195 79.8591 81.1409L77.8626 79.1444C78.4457 78.1689 78.8927 77.1132 79.1812 76H82C84.2091 76 86 74.2091 86 72V67ZM62.5 80C68.8513 80 74 74.8513 74 68.5C74 62.1487 68.8513 57 62.5 57C56.1487 57 51 62.1487 51 68.5C51 74.8513 56.1487 80 62.5 80Z" fill="#FF6B35"/>
  
  <!-- Neural network nodes -->
  <circle cx="30" cy="45" r="4" fill="#4C6EF5"/>
  <circle cx="30" cy="60" r="4" fill="#4C6EF5"/>
  <circle cx="30" cy="75" r="4" fill="#4C6EF5"/>
  
  <circle cx="47" cy="40" r="4" fill="#4C6EF5"/>
  <circle cx="47" cy="60" r="4" fill="#4C6EF5"/>
  <circle cx="47" cy="80" r="4" fill="#4C6EF5"/>
  
  <circle cx="90" cy="45" r="4" fill="#4C6EF5"/>
  <circle cx="90" cy="75" r="4" fill="#4C6EF5"/>
  
  <!-- Neural network connections -->
  <line x1="34" y1="45" x2="43" y2="40" stroke="#4C6EF5" stroke-width="1.5"/>
  <line x1="34" y1="45" x2="43" y2="60" stroke="#4C6EF5" stroke-width="1.5"/>
  <line x1="34" y1="60" x2="43" y2="40" stroke="#4C6EF5" stroke-width="1.5"/>
  <line x1="34" y1="60" x2="43" y2="60" stroke="#4C6EF5" stroke-width="1.5"/>
  <line x1="34" y1="60" x2="43" y2="80" stroke="#4C6EF5" stroke-width="1.5"/>
  <line x1="34" y1="75" x2="43" y2="60" stroke="#4C6EF5" stroke-width="1.5"/>
  <line x1="34" y1="75" x2="43" y2="80" stroke="#4C6EF5" stroke-width="1.5"/>
  
  <line x1="51" y1="40" x2="86" y2="45" stroke="#4C6EF5" stroke-width="1.5"/>
  <line x1="51" y1="60" x2="86" y2="45" stroke="#4C6EF5" stroke-width="1.5"/>
  <line x1="51" y1="60" x2="86" y2="75" stroke="#4C6EF5" stroke-width="1.5"/>
  <line x1="51" y1="80" x2="86" y2="75" stroke="#4C6EF5" stroke-width="1.5"/>
</svg> 